<svg viewBox="0 0 800 500" xmlns="http://www.w3.org/2000/svg">
<defs>
  <linearGradient id="bg" x1="0" y1="0" x2="0" y2="1"><stop offset="0%" stop-color="#D8E8F2"/><stop offset="100%" stop-color="#C0D4E4"/></linearGradient>
  <linearGradient id="tbl" x1="0" y1="0" x2=".06" y2="1"><stop offset="0%" stop-color="#EAF2F8"/><stop offset="100%" stop-color="#D4E4F0"/></linearGradient>
  <linearGradient id="mug" x1="0" y1="0" x2=".2" y2="1"><stop offset="0%" stop-color="#FAFCFE"/><stop offset="100%" stop-color="#E0EEF8"/></linearGradient>
  <radialGradient id="win" cx=".22" cy=".08" r=".68"><stop offset="0%" stop-color="#FFFFFF" stop-opacity=".6"/><stop offset="100%" stop-color="#FFFFFF" stop-opacity="0"/></radialGradient>
  <radialGradient id="vig" cx=".5" cy=".5" r=".72"><stop offset="52%" stop-color="transparent"/><stop offset="100%" stop-color="#3A5468" stop-opacity=".45"/></radialGradient>
  <filter id="b4"><feGaussianBlur stdDeviation="4"/></filter>
  <filter id="b9"><feGaussianBlur stdDeviation="9"/></filter>
</defs>
<!-- KITCHEN TOP VIEW — cool morning -->
<rect width="800" height="500" fill="url(#bg)"/>
<ellipse cx="400" cy="300" rx="390" ry="240" fill="url(#tbl)"/>
<rect width="800" height="500" fill="url(#win)"/>
<!-- window light stripe -->
<rect x="0" y="0" width="160" height="500" fill="#C8E0F4" opacity=".15" transform="rotate(-3 80 250)"/>
<!-- NEWSPAPER -->
<rect x="80" y="88" width="280" height="198" rx="5" fill="#EEF4F8" opacity=".88"/>
<rect x="96" y="106" width="120" height="10" rx="3" fill="#A0B8CC" opacity=".62"/>
<rect x="96" y="124" width="248" height="4" rx="2" fill="#B8CCDA" opacity=".4"/>
<rect x="96" y="136" width="236" height="4" rx="2" fill="#B8CCDA" opacity=".36"/>
<rect x="96" y="148" width="244" height="4" rx="2" fill="#B8CCDA" opacity=".32"/>
<rect x="96" y="170" width="108" height="72" rx="3" fill="#C4D4E0" opacity=".45"/>
<rect x="212" y="170" width="112" height="72" rx="3" fill="#BECEDE" opacity=".4"/>
<!-- TEA MUG top view -->
<circle cx="588" cy="220" r="72" fill="#D8E8F0" opacity=".92"/>
<circle cx="588" cy="220" r="54" fill="url(#mug)"/>
<circle cx="588" cy="220" r="32" fill="#C0AE78" opacity=".48"/>
<circle cx="588" cy="220" r="18" fill="#B8A468" opacity=".4"/>
<!-- steam -->
<path d="M572 144 Q566 124 572 104" fill="none" stroke="#A8C4D8" stroke-width="3" stroke-linecap="round" opacity=".5"/>
<path d="M592 140 Q598 120 592 100" fill="none" stroke="#A8C4D8" stroke-width="2.5" stroke-linecap="round" opacity=".42"/>
<path d="M610 146 Q616 126 610 108" fill="none" stroke="#A8C4D8" stroke-width="2.5" stroke-linecap="round" opacity=".38"/>
<!-- KEYS on newspaper -->
<circle cx="248" cy="316" r="22" fill="none" stroke="#7A90A8" stroke-width="4" opacity=".88"/>
<circle cx="248" cy="316" r="13" fill="#98B0C4" opacity=".48"/>
<rect x="268" y="313" width="56" height="7" rx="3.5" fill="#8898B0" opacity=".88"/>
<rect x="308" y="302" width="7" height="9" rx="2" fill="#7888A0" opacity=".82"/>
<rect x="318" y="302" width="7" height="9" rx="2" fill="#7888A0" opacity=".78"/>
<circle cx="246" cy="312" r="5" fill="#FFFFFF" opacity=".5"/>
<!-- second key -->
<circle cx="232" cy="344" r="18" fill="none" stroke="#8898B0" stroke-width="3.5" opacity=".8"/>
<rect x="248" y="342" width="44" height="6" rx="3" fill="#9AAAB8" opacity=".82"/>
<!-- TOTE BAG corner (lower-left) -->
<path d="M0 360 L0 500 Q0 500 40 500 L220 500 Q240 500 240 480 L240 360 Z" fill="#8898A8" opacity=".65"/>
<path d="M50 360 Q120 310 190 360" fill="none" stroke="#6A7A90" stroke-width="14" stroke-linecap="round"/>
<!-- PHONE (lower-right) -->
<rect x="650" y="348" width="96" height="170" rx="16" fill="#4A5868" opacity=".72"/>
<rect x="658" y="356" width="80" height="154" rx="12" fill="#3A4858" opacity=".9"/>
<rect x="672" y="400" width="52" height="14" rx="4" fill="#6888A0" opacity=".35"/>
<!-- vignette -->
<rect width="800" height="500" fill="url(#vig)"/>
<text x="32" y="468" font-family="Helvetica Neue,Helvetica,sans-serif" font-size="11" fill="#7AAAC0" letter-spacing="4" opacity=".75">STORY 03  ·  I HAVE TO ~  ·  SOFT BLUE</text>
</svg>
