<svg viewBox="0 0 800 500" xmlns="http://www.w3.org/2000/svg">
<defs>
  <linearGradient id="tbl" x1="0" y1=".1" x2=".05" y2="1"><stop offset="0%" stop-color="#2C2010"/><stop offset="100%" stop-color="#1E1408"/></linearGradient>
  <linearGradient id="ppr" x1="0" y1="0" x2=".04" y2="1"><stop offset="0%" stop-color="#F8EED8"/><stop offset="100%" stop-color="#EAD9B8"/></linearGradient>
  <radialGradient id="lamp" cx=".72" cy=".06" r=".52"><stop offset="0%" stop-color="#FFD080" stop-opacity=".9"/><stop offset="45%" stop-color="#F0A830" stop-opacity=".42"/><stop offset="100%" stop-color="#C07010" stop-opacity="0"/></radialGradient>
  <radialGradient id="vig" cx=".5" cy=".5" r=".72"><stop offset="46%" stop-color="transparent"/><stop offset="100%" stop-color="#080400" stop-opacity=".72"/></radialGradient>
  <filter id="b4"><feGaussianBlur stdDeviation="4"/></filter>
</defs>
<!-- dark desk surface CLOSE-UP -->
<rect width="800" height="500" fill="#181006"/>
<rect width="800" height="500" fill="url(#tbl)" opacity=".88"/>
<rect width="800" height="500" fill="url(#lamp)"/>
<!-- NOTEBOOK (warm paper, large, center) -->
<rect x="60" y="40" width="540" height="420" rx="7" fill="url(#ppr)" opacity=".97"/>
<!-- spiral binding left edge -->
<rect x="60" y="40" width="30" height="420" rx="6" fill="#D4C8A0" opacity=".7"/>
<circle cx="75" cy="90" r="9" fill="#8A7040" opacity=".65"/>
<circle cx="75" cy="130" r="9" fill="#8A7040" opacity=".65"/>
<circle cx="75" cy="170" r="9" fill="#8A7040" opacity=".65"/>
<circle cx="75" cy="210" r="9" fill="#8A7040" opacity=".65"/>
<circle cx="75" cy="250" r="9" fill="#8A7040" opacity=".65"/>
<circle cx="75" cy="290" r="9" fill="#8A7040" opacity=".65"/>
<circle cx="75" cy="330" r="9" fill="#8A7040" opacity=".65"/>
<circle cx="75" cy="370" r="9" fill="#8A7040" opacity=".65"/>
<circle cx="75" cy="410" r="9" fill="#8A7040" opacity=".65"/>
<!-- RULED LINES -->
<rect x="98" y="68" width="482" height="1.5" fill="#D4C4A0" opacity=".5"/>
<rect x="98" y="90" width="482" height="1.5" fill="#D4C4A0" opacity=".5"/>
<rect x="98" y="112" width="482" height="1.5" fill="#D4C4A0" opacity=".5"/>
<rect x="98" y="134" width="482" height="1.5" fill="#D4C4A0" opacity=".5"/>
<rect x="98" y="156" width="482" height="1.5" fill="#D4C4A0" opacity=".5"/>
<rect x="98" y="178" width="482" height="1.5" fill="#D4C4A0" opacity=".5"/>
<rect x="98" y="200" width="482" height="1.5" fill="#D4C4A0" opacity=".5"/>
<rect x="98" y="222" width="482" height="1.5" fill="#D4C4A0" opacity=".5"/>
<rect x="98" y="244" width="482" height="1.5" fill="#D4C4A0" opacity=".5"/>
<rect x="98" y="266" width="482" height="1.5" fill="#D4C4A0" opacity=".5"/>
<rect x="98" y="288" width="482" height="1.5" fill="#D4C4A0" opacity=".5"/>
<rect x="98" y="310" width="482" height="1.5" fill="#D4C4A0" opacity=".5"/>
<rect x="98" y="332" width="482" height="1.5" fill="#D4C4A0" opacity=".5"/>
<rect x="98" y="354" width="482" height="1.5" fill="#D4C4A0" opacity=".5"/>
<rect x="98" y="376" width="482" height="1.5" fill="#D4C4A0" opacity=".5"/>
<rect x="98" y="398" width="482" height="1.5" fill="#D4C4A0" opacity=".5"/>
<rect x="98" y="420" width="482" height="1.5" fill="#D4C4A0" opacity=".5"/>
<!-- HANDWRITTEN TEXT (wavy bars, different lengths) -->
<rect x="112" y="80" width="300" height="5" rx="2.5" fill="#6A5828" opacity=".55"/>
<rect x="112" y="102" width="360" height="5" rx="2.5" fill="#6A5828" opacity=".5"/>
<rect x="112" y="124" width="340" height="5" rx="2.5" fill="#6A5828" opacity=".48"/>
<rect x="112" y="146" width="316" height="5" rx="2.5" fill="#6A5828" opacity=".45"/>
<rect x="112" y="168" width="368" height="5" rx="2.5" fill="#6A5828" opacity=".5"/>
<rect x="112" y="190" width="328" height="5" rx="2.5" fill="#6A5828" opacity=".45"/>
<rect x="112" y="212" width="344" height="5" rx="2.5" fill="#6A5828" opacity=".48"/>
<rect x="112" y="234" width="296" height="5" rx="2.5" fill="#6A5828" opacity=".44"/>
<!-- UNDERLINES (multiple passes = repeated checking/studying) -->
<!-- double underline line 1 -->
<rect x="112" y="88" width="300" height="3" rx="1.5" fill="#C05820" opacity=".72"/>
<rect x="112" y="93" width="300" height="2" rx="1" fill="#C05820" opacity=".52"/>
<!-- wavy underline line 2 -->
<path d="M112 111 Q152 106 192 111 Q232 116 272 111 Q312 106 352 111 Q392 116 432 111 Q462 106 472 111" fill="none" stroke="#D07020" stroke-width="2.5" stroke-linecap="round" opacity=".65"/>
<!-- highlight block line 3 -->
<rect x="112" y="116" width="340" height="14" rx="3" fill="#F0C040" opacity=".25"/>
<rect x="112" y="132" width="340" height="3" rx="1.5" fill="#C07020" opacity=".7"/>
<!-- triple underline line 5 (most emphasized) -->
<rect x="112" y="176" width="368" height="2.5" rx="1" fill="#C04010" opacity=".8"/>
<rect x="112" y="180" width="368" height="2" rx="1" fill="#C04010" opacity=".65"/>
<rect x="112" y="184" width="368" height="2" rx="1" fill="#C04010" opacity=".5"/>
<!-- star / asterisk marks -->
<text x="530" y="92" font-family="serif" font-size="20" fill="#C07020" opacity=".72">★</text>
<text x="530" y="136" font-family="serif" font-size="18" fill="#D05018" opacity=".68">✓</text>
<text x="524" y="180" font-family="serif" font-size="20" fill="#C04010" opacity=".75">★</text>
<!-- PEN (held, entering right edge — action) -->
<rect x="504" y="246" width="296" height="18" rx="9" fill="#8A7040" opacity=".88" transform="rotate(-25 652 255)"/>
<ellipse cx="509" cy="266" rx="12" ry="6" fill="#C09050" opacity=".82" transform="rotate(-25 509 266)"/>
<rect x="596" y="364" width="48" height="14" rx="7" fill="#D4C090" opacity=".7" transform="rotate(-25 620 371)"/>
<!-- pen tip touching paper -->
<ellipse cx="510" cy="268" rx="5" ry="3" fill="#1A1010" opacity=".7" transform="rotate(-25 510 268)"/>
<!-- vignette -->
<rect width="800" height="500" fill="url(#vig)"/>
<text x="32" y="468" font-family="Helvetica Neue,Helvetica,sans-serif" font-size="11" fill="#C09040" letter-spacing="4" opacity=".72">STORY 04  ·  I KEEP ~ING  ·  AMBER NIGHT</text>
</svg>
